<svg width="100" height="100" viewBox="0 0 100 100" fill="none" xmlns="http://www.w3.org/2000/svg">
<rect width="100" height="100" fill="#002B36"/>
<path d="M59.6995 33.3846C57.8795 33.3846 56.2133 34.0114 54.883 35.0671C54.3113 35.5209 53.0066 37.0399 52.4521 37.8901L40.3782 56.1538C37.9631 60.4615 32.7533 64.1538 27.0948 64.1538C18.7582 64.1538 12 57.2659 12 48.7692C12 40.2725 18.7582 33.3846 27.0948 33.3846C30.4618 33.3846 33.5714 34.5082 36.0822 36.4075L40.3782 42.6154C39.0265 41.4915 28.9753 40.7692 27.0948 40.7692C22.7598 40.7692 19.2455 44.351 19.2455 48.7692C19.2455 53.1875 22.7598 56.7692 27.0948 56.7692C29.9564 56.7692 32.5289 54.9231 33.8319 52.8768L46.4181 33.8022C47.24 32.5421 49.0462 30.3401 50.4316 29.2406C52.989 27.2109 56.2106 26 59.6995 26C63.6255 26 67.2014 27.5276 69.8863 30.0313C66.8386 30.5968 64.0257 31.848 61.6069 33.6225C60.9963 33.4671 60.3574 33.3846 59.6995 33.3846Z" fill="#BAFB00"/>
<path d="M40.3005 66.6154C42.1205 66.6154 43.7867 65.9886 45.117 64.9329C45.6887 64.4791 46.9934 62.9601 47.5479 62.1099L59.6218 43.8462C62.0369 39.5385 67.2467 35.8462 72.9052 35.8462C81.2418 35.8462 88 42.7341 88 51.2308C88 59.7275 81.2418 66.6154 72.9052 66.6154C69.5382 66.6154 66.4286 65.4918 63.9178 63.5925L59.3972 57.3846C60.7489 58.5085 71.0247 59.2308 72.9052 59.2308C77.2402 59.2308 80.7545 55.649 80.7545 51.2308C80.7545 46.8125 77.2402 43.2308 72.9052 43.2308C70.0436 43.2308 67.4711 45.0769 66.1681 47.1232L53.5818 66.1978C52.76 67.4579 50.9538 69.6599 49.5684 70.7594C47.011 72.7891 43.7894 74 40.3005 74C36.3745 74 32.7986 72.4724 30.1137 69.9687C33.1614 69.4032 35.9743 68.152 38.3931 66.3775C39.0037 66.5329 39.6426 66.6154 40.3005 66.6154Z" fill="#BAFB00"/>
</svg>
