<svg width="167" height="169" viewBox="0 0 167 169" fill="none" xmlns="http://www.w3.org/2000/svg">
<path d="M58.58 102.492C63.8119 97.3487 66.6067 93.5503 67.5112 92.2545C65.8452 88.2789 66.2558 83.9022 68.317 80.4069C65.977 79.5767 62.3691 78.1287 57.662 75.6995C51.1202 72.324 38.3973 60.1695 38.6227 47.3848C38.7624 39.7811 44.8624 31.1556 52.4903 23.7913C47.7315 23.6044 43.0414 24.589 39.4842 26.3079C34.9032 28.5215 32.0729 31.4016 29.0865 34.4339C25.7412 37.8319 22.2865 41.3469 16.1544 44.31C8.56431 47.9777 3.17391 47.7242 0.184842 47.0026C1.41394 50.5228 3.442 57.4123 4.12002 65.8898C5.29586 80.6505 16.2279 106.679 28.3678 111.028C39.6116 115.054 54.3362 106.67 58.5747 102.507L58.58 102.492Z" fill="url(#paint0_linear_281_181)"/>
<g clip-path="url(#paint1_diamond_281_181_clip_path)" data-figma-skip-parse="true"><g transform="matrix(-0.00952213 0.0615994 -0.135404 -0.0212093 80.1448 83.8022)"><rect x="0" y="0" width="2022.44" height="883.858" fill="url(#paint1_diamond_281_181)" opacity="0.6" shape-rendering="crispEdges"/><rect x="0" y="0" width="2022.44" height="883.858" transform="scale(1 -1)" fill="url(#paint1_diamond_281_181)" opacity="0.6" shape-rendering="crispEdges"/><rect x="0" y="0" width="2022.44" height="883.858" transform="scale(-1 1)" fill="url(#paint1_diamond_281_181)" opacity="0.6" shape-rendering="crispEdges"/><rect x="0" y="0" width="2022.44" height="883.858" transform="scale(-1)" fill="url(#paint1_diamond_281_181)" opacity="0.6" shape-rendering="crispEdges"/></g></g><path d="M58.58 102.492C63.8119 97.3487 66.6067 93.5503 67.5112 92.2545C65.8452 88.2789 66.2558 83.9022 68.317 80.4069C65.977 79.5767 62.3691 78.1287 57.662 75.6995C51.1202 72.324 38.3973 60.1695 38.6227 47.3848C38.7624 39.7811 44.8624 31.1556 52.4903 23.7913C47.7315 23.6044 43.0414 24.589 39.4842 26.3079C34.9032 28.5215 32.0729 31.4016 29.0865 34.4339C25.7412 37.8319 22.2865 41.3469 16.1544 44.31C8.56431 47.9777 3.17391 47.7242 0.184842 47.0026C1.41394 50.5228 3.442 57.4123 4.12002 65.8898C5.29586 80.6505 16.2279 106.679 28.3678 111.028C39.6116 115.054 54.3362 106.67 58.5747 102.507L58.58 102.492Z" data-figma-gradient-fill="{&#34;type&#34;:&#34;GRADIENT_DIAMOND&#34;,&#34;stops&#34;:[{&#34;color&#34;:{&#34;r&#34;:0.0,&#34;g&#34;:0.0,&#34;b&#34;:0.0,&#34;a&#34;:1.0},&#34;position&#34;:0.0},{&#34;color&#34;:{&#34;r&#34;:0.0,&#34;g&#34;:0.0,&#34;b&#34;:0.0,&#34;a&#34;:0.48704355955123901},&#34;position&#34;:0.50578802824020386},{&#34;color&#34;:{&#34;r&#34;:0.0,&#34;g&#34;:0.0,&#34;b&#34;:0.0,&#34;a&#34;:0.0},&#34;position&#34;:1.0}],&#34;stopsVar&#34;:[{&#34;color&#34;:{&#34;r&#34;:0.0,&#34;g&#34;:0.0,&#34;b&#34;:0.0,&#34;a&#34;:1.0},&#34;position&#34;:0.0},{&#34;color&#34;:{&#34;r&#34;:0.0,&#34;g&#34;:0.0,&#34;b&#34;:0.0,&#34;a&#34;:0.48704355955123901},&#34;position&#34;:0.50578802824020386},{&#34;color&#34;:{&#34;r&#34;:0.0,&#34;g&#34;:0.0,&#34;b&#34;:0.0,&#34;a&#34;:0.0},&#34;position&#34;:1.0}],&#34;transform&#34;:{&#34;m00&#34;:-19.044261932373047,&#34;m01&#34;:-270.80801391601562,&#34;m02&#34;:225.07098388671875,&#34;m10&#34;:123.19872283935547,&#34;m11&#34;:-42.418655395507812,&#34;m12&#34;:43.412158966064453},&#34;opacity&#34;:0.60000002384185791,&#34;blendMode&#34;:&#34;SOFT_LIGHT&#34;,&#34;visible&#34;:true}" style="mix-blend-mode:soft-light"/>
<path d="M88.0342 145.127C95.1223 135.537 91.4022 118.942 88.6566 113.63C84.6487 105.89 81.4296 101.947 81.1204 101.571L79.9873 100.414C75.6214 100.486 71.3784 98.3835 68.8152 94.6364C67.4621 96.4821 64.765 99.8489 60.3027 104.235C58.3577 106.149 55.0092 108.485 50.9556 110.444C44.0687 113.772 35.1428 116.021 27.5751 113.321C21.4564 111.138 15.9904 104.551 11.6755 96.6776C10.347 100.844 9.89348 105.37 10.511 109.314C11.2955 114.369 13.2183 117.926 15.2465 121.701C17.5216 125.907 19.872 130.27 20.9196 137.031C22.221 145.399 20.4087 150.492 18.8612 153.149C22.5747 153.021 29.7357 153.111 38.0019 154.987C52.4114 158.252 80.387 155.487 88.0496 145.132L88.0342 145.127Z" fill="url(#paint2_linear_281_181)"/>
<g clip-path="url(#paint3_diamond_281_181_clip_path)" data-figma-skip-parse="true"><g transform="matrix(-0.00952213 0.0615994 -0.135404 -0.0212093 80.1448 83.8022)"><rect x="0" y="0" width="2022.44" height="883.858" fill="url(#paint3_diamond_281_181)" opacity="0.6" shape-rendering="crispEdges"/><rect x="0" y="0" width="2022.44" height="883.858" transform="scale(1 -1)" fill="url(#paint3_diamond_281_181)" opacity="0.6" shape-rendering="crispEdges"/><rect x="0" y="0" width="2022.44" height="883.858" transform="scale(-1 1)" fill="url(#paint3_diamond_281_181)" opacity="0.6" shape-rendering="crispEdges"/><rect x="0" y="0" width="2022.44" height="883.858" transform="scale(-1)" fill="url(#paint3_diamond_281_181)" opacity="0.6" shape-rendering="crispEdges"/></g></g><path d="M88.0342 145.127C95.1223 135.537 91.4022 118.942 88.6566 113.63C84.6487 105.89 81.4296 101.947 81.1204 101.571L79.9873 100.414C75.6214 100.486 71.3784 98.3835 68.8152 94.6364C67.4621 96.4821 64.765 99.8489 60.3027 104.235C58.3577 106.149 55.0092 108.485 50.9556 110.444C44.0687 113.772 35.1428 116.021 27.5751 113.321C21.4564 111.138 15.9904 104.551 11.6755 96.6776C10.347 100.844 9.89348 105.37 10.511 109.314C11.2955 114.369 13.2183 117.926 15.2465 121.701C17.5216 125.907 19.872 130.27 20.9196 137.031C22.221 145.399 20.4087 150.492 18.8612 153.149C22.5747 153.021 29.7357 153.111 38.0019 154.987C52.4114 158.252 80.387 155.487 88.0496 145.132L88.0342 145.127Z" data-figma-gradient-fill="{&#34;type&#34;:&#34;GRADIENT_DIAMOND&#34;,&#34;stops&#34;:[{&#34;color&#34;:{&#34;r&#34;:0.0,&#34;g&#34;:0.0,&#34;b&#34;:0.0,&#34;a&#34;:1.0},&#34;position&#34;:0.0},{&#34;color&#34;:{&#34;r&#34;:0.0,&#34;g&#34;:0.0,&#34;b&#34;:0.0,&#34;a&#34;:0.48704355955123901},&#34;position&#34;:0.50578802824020386},{&#34;color&#34;:{&#34;r&#34;:0.0,&#34;g&#34;:0.0,&#34;b&#34;:0.0,&#34;a&#34;:0.0},&#34;position&#34;:1.0}],&#34;stopsVar&#34;:[{&#34;color&#34;:{&#34;r&#34;:0.0,&#34;g&#34;:0.0,&#34;b&#34;:0.0,&#34;a&#34;:1.0},&#34;position&#34;:0.0},{&#34;color&#34;:{&#34;r&#34;:0.0,&#34;g&#34;:0.0,&#34;b&#34;:0.0,&#34;a&#34;:0.48704355955123901},&#34;position&#34;:0.50578802824020386},{&#34;color&#34;:{&#34;r&#34;:0.0,&#34;g&#34;:0.0,&#34;b&#34;:0.0,&#34;a&#34;:0.0},&#34;position&#34;:1.0}],&#34;transform&#34;:{&#34;m00&#34;:-19.044261932373047,&#34;m01&#34;:-270.80801391601562,&#34;m02&#34;:225.07098388671875,&#34;m10&#34;:123.19872283935547,&#34;m11&#34;:-42.418655395507812,&#34;m12&#34;:43.412158966064453},&#34;opacity&#34;:0.60000002384185791,&#34;blendMode&#34;:&#34;SOFT_LIGHT&#34;,&#34;visible&#34;:true}" style="mix-blend-mode:soft-light"/>
<path d="M41.0694 47.4329C40.8536 59.3927 53.4773 70.7877 58.7772 73.52C63.8574 76.1406 67.6605 77.5968 69.8319 78.3419C70.9467 77.0855 72.3215 76.0238 73.9243 75.2493C76.9542 73.7853 80.2621 73.6095 83.265 74.4654C83.2945 72.8106 83.5253 67.9825 85.1087 60.463C86.6268 53.257 94.9654 37.8079 107.33 34.7554C113.755 33.1633 122.12 35.7728 130.203 40.1208C128.853 36.8772 126.991 33.8679 124.776 31.5803C121.214 27.9054 117.595 26.1169 113.771 24.2221C109.482 22.1036 105.055 19.9107 100.299 15.0056C94.4007 8.92262 92.929 3.71242 92.6561 0.640073C89.7095 2.90984 83.8316 7.00615 76.0507 10.279C62.4624 15.9991 41.3271 34.5301 41.0848 47.4383L41.0694 47.4329Z" fill="url(#paint4_linear_281_181)"/>
<g clip-path="url(#paint5_diamond_281_181_clip_path)" data-figma-skip-parse="true"><g transform="matrix(-0.00952213 0.0615994 -0.135404 -0.0212093 80.1448 83.8022)"><rect x="0" y="0" width="2022.44" height="883.858" fill="url(#paint5_diamond_281_181)" opacity="0.6" shape-rendering="crispEdges"/><rect x="0" y="0" width="2022.44" height="883.858" transform="scale(1 -1)" fill="url(#paint5_diamond_281_181)" opacity="0.6" shape-rendering="crispEdges"/><rect x="0" y="0" width="2022.44" height="883.858" transform="scale(-1 1)" fill="url(#paint5_diamond_281_181)" opacity="0.6" shape-rendering="crispEdges"/><rect x="0" y="0" width="2022.44" height="883.858" transform="scale(-1)" fill="url(#paint5_diamond_281_181)" opacity="0.6" shape-rendering="crispEdges"/></g></g><path d="M41.0694 47.4329C40.8536 59.3927 53.4773 70.7877 58.7772 73.52C63.8574 76.1406 67.6605 77.5968 69.8319 78.3419C70.9467 77.0855 72.3215 76.0238 73.9243 75.2493C76.9542 73.7853 80.2621 73.6095 83.265 74.4654C83.2945 72.8106 83.5253 67.9825 85.1087 60.463C86.6268 53.257 94.9654 37.8079 107.33 34.7554C113.755 33.1633 122.12 35.7728 130.203 40.1208C128.853 36.8772 126.991 33.8679 124.776 31.5803C121.214 27.9054 117.595 26.1169 113.771 24.2221C109.482 22.1036 105.055 19.9107 100.299 15.0056C94.4007 8.92262 92.929 3.71242 92.6561 0.640073C89.7095 2.90984 83.8316 7.00615 76.0507 10.279C62.4624 15.9991 41.3271 34.5301 41.0848 47.4383L41.0694 47.4329Z" data-figma-gradient-fill="{&#34;type&#34;:&#34;GRADIENT_DIAMOND&#34;,&#34;stops&#34;:[{&#34;color&#34;:{&#34;r&#34;:0.0,&#34;g&#34;:0.0,&#34;b&#34;:0.0,&#34;a&#34;:1.0},&#34;position&#34;:0.0},{&#34;color&#34;:{&#34;r&#34;:0.0,&#34;g&#34;:0.0,&#34;b&#34;:0.0,&#34;a&#34;:0.48704355955123901},&#34;position&#34;:0.50578802824020386},{&#34;color&#34;:{&#34;r&#34;:0.0,&#34;g&#34;:0.0,&#34;b&#34;:0.0,&#34;a&#34;:0.0},&#34;position&#34;:1.0}],&#34;stopsVar&#34;:[{&#34;color&#34;:{&#34;r&#34;:0.0,&#34;g&#34;:0.0,&#34;b&#34;:0.0,&#34;a&#34;:1.0},&#34;position&#34;:0.0},{&#34;color&#34;:{&#34;r&#34;:0.0,&#34;g&#34;:0.0,&#34;b&#34;:0.0,&#34;a&#34;:0.48704355955123901},&#34;position&#34;:0.50578802824020386},{&#34;color&#34;:{&#34;r&#34;:0.0,&#34;g&#34;:0.0,&#34;b&#34;:0.0,&#34;a&#34;:0.0},&#34;position&#34;:1.0}],&#34;transform&#34;:{&#34;m00&#34;:-19.044261932373047,&#34;m01&#34;:-270.80801391601562,&#34;m02&#34;:225.07098388671875,&#34;m10&#34;:123.19872283935547,&#34;m11&#34;:-42.418655395507812,&#34;m12&#34;:43.412158966064453},&#34;opacity&#34;:0.60000002384185791,&#34;blendMode&#34;:&#34;SOFT_LIGHT&#34;,&#34;visible&#34;:true}" style="mix-blend-mode:soft-light"/>
<path d="M69.9886 91.8648C72.5844 97.2367 79.0363 99.5021 84.3825 96.9187C89.7287 94.3354 91.9631 87.8727 89.3673 82.5007C86.7715 77.1288 80.3196 74.8634 74.9734 77.4468C69.6272 80.0301 67.3928 86.4928 69.9886 91.8648Z" fill="url(#paint6_linear_281_181)"/>
<g clip-path="url(#paint7_diamond_281_181_clip_path)" data-figma-skip-parse="true"><g transform="matrix(-0.00952213 0.0615994 -0.135404 -0.0212093 80.1448 83.8022)"><rect x="0" y="0" width="2022.44" height="883.858" fill="url(#paint7_diamond_281_181)" opacity="0.6" shape-rendering="crispEdges"/><rect x="0" y="0" width="2022.44" height="883.858" transform="scale(1 -1)" fill="url(#paint7_diamond_281_181)" opacity="0.6" shape-rendering="crispEdges"/><rect x="0" y="0" width="2022.44" height="883.858" transform="scale(-1 1)" fill="url(#paint7_diamond_281_181)" opacity="0.6" shape-rendering="crispEdges"/><rect x="0" y="0" width="2022.44" height="883.858" transform="scale(-1)" fill="url(#paint7_diamond_281_181)" opacity="0.6" shape-rendering="crispEdges"/></g></g><path d="M69.9886 91.8648C72.5844 97.2367 79.0363 99.5021 84.3825 96.9187C89.7287 94.3354 91.9631 87.8727 89.3673 82.5007C86.7715 77.1288 80.3196 74.8634 74.9734 77.4468C69.6272 80.0301 67.3928 86.4928 69.9886 91.8648Z" data-figma-gradient-fill="{&#34;type&#34;:&#34;GRADIENT_DIAMOND&#34;,&#34;stops&#34;:[{&#34;color&#34;:{&#34;r&#34;:0.0,&#34;g&#34;:0.0,&#34;b&#34;:0.0,&#34;a&#34;:1.0},&#34;position&#34;:0.0},{&#34;color&#34;:{&#34;r&#34;:0.0,&#34;g&#34;:0.0,&#34;b&#34;:0.0,&#34;a&#34;:0.48704355955123901},&#34;position&#34;:0.50578802824020386},{&#34;color&#34;:{&#34;r&#34;:0.0,&#34;g&#34;:0.0,&#34;b&#34;:0.0,&#34;a&#34;:0.0},&#34;position&#34;:1.0}],&#34;stopsVar&#34;:[{&#34;color&#34;:{&#34;r&#34;:0.0,&#34;g&#34;:0.0,&#34;b&#34;:0.0,&#34;a&#34;:1.0},&#34;position&#34;:0.0},{&#34;color&#34;:{&#34;r&#34;:0.0,&#34;g&#34;:0.0,&#34;b&#34;:0.0,&#34;a&#34;:0.48704355955123901},&#34;position&#34;:0.50578802824020386},{&#34;color&#34;:{&#34;r&#34;:0.0,&#34;g&#34;:0.0,&#34;b&#34;:0.0,&#34;a&#34;:0.0},&#34;position&#34;:1.0}],&#34;transform&#34;:{&#34;m00&#34;:-19.044261932373047,&#34;m01&#34;:-270.80801391601562,&#34;m02&#34;:225.07098388671875,&#34;m10&#34;:123.19872283935547,&#34;m11&#34;:-42.418655395507812,&#34;m12&#34;:43.412158966064453},&#34;opacity&#34;:0.60000002384185791,&#34;blendMode&#34;:&#34;SOFT_LIGHT&#34;,&#34;visible&#34;:true}" style="mix-blend-mode:soft-light"/>
<path d="M107.914 37.1261C96.3696 39.9747 88.7232 55.1406 87.4884 60.9793C85.693 69.4856 85.6802 74.5801 85.6899 75.0753L85.7265 75.4677C88.1796 76.7432 90.2742 78.7814 91.5696 81.4622C92.6742 83.7481 93.052 86.193 92.8189 88.5614L93.5421 88.2632C93.5421 88.2632 93.5938 88.2382 93.6145 88.2282C93.826 88.1644 98.7957 86.5705 108.167 85.7974C115.49 85.1937 132.678 88.7697 139.229 99.7666C142.068 104.534 142.513 111.445 141.553 118.83C143.004 117.347 144.318 115.763 145.304 114.108C147.9 109.713 148.666 105.755 149.481 101.554C150.389 96.8605 151.324 92.0124 154.791 86.1462C159.086 78.88 163.73 76.1104 166.595 75.046C163.635 72.7727 158.151 68.1554 152.928 61.4383C143.835 49.7472 120.408 34.0499 107.919 37.1365L107.914 37.1261Z" fill="url(#paint8_linear_281_181)"/>
<g clip-path="url(#paint9_diamond_281_181_clip_path)" data-figma-skip-parse="true"><g transform="matrix(-0.00952213 0.0615994 -0.135404 -0.0212093 80.1448 83.8022)"><rect x="0" y="0" width="2022.44" height="883.858" fill="url(#paint9_diamond_281_181)" opacity="0.6" shape-rendering="crispEdges"/><rect x="0" y="0" width="2022.44" height="883.858" transform="scale(1 -1)" fill="url(#paint9_diamond_281_181)" opacity="0.6" shape-rendering="crispEdges"/><rect x="0" y="0" width="2022.44" height="883.858" transform="scale(-1 1)" fill="url(#paint9_diamond_281_181)" opacity="0.6" shape-rendering="crispEdges"/><rect x="0" y="0" width="2022.44" height="883.858" transform="scale(-1)" fill="url(#paint9_diamond_281_181)" opacity="0.6" shape-rendering="crispEdges"/></g></g><path d="M107.914 37.1261C96.3696 39.9747 88.7232 55.1406 87.4884 60.9793C85.693 69.4856 85.6802 74.5801 85.6899 75.0753L85.7265 75.4677C88.1796 76.7432 90.2742 78.7814 91.5696 81.4622C92.6742 83.7481 93.052 86.193 92.8189 88.5614L93.5421 88.2632C93.5421 88.2632 93.5938 88.2382 93.6145 88.2282C93.826 88.1644 98.7957 86.5705 108.167 85.7974C115.49 85.1937 132.678 88.7697 139.229 99.7666C142.068 104.534 142.513 111.445 141.553 118.83C143.004 117.347 144.318 115.763 145.304 114.108C147.9 109.713 148.666 105.755 149.481 101.554C150.389 96.8605 151.324 92.0124 154.791 86.1462C159.086 78.88 163.73 76.1104 166.595 75.046C163.635 72.7727 158.151 68.1554 152.928 61.4383C143.835 49.7472 120.408 34.0499 107.919 37.1365L107.914 37.1261Z" data-figma-gradient-fill="{&#34;type&#34;:&#34;GRADIENT_DIAMOND&#34;,&#34;stops&#34;:[{&#34;color&#34;:{&#34;r&#34;:0.0,&#34;g&#34;:0.0,&#34;b&#34;:0.0,&#34;a&#34;:1.0},&#34;position&#34;:0.0},{&#34;color&#34;:{&#34;r&#34;:0.0,&#34;g&#34;:0.0,&#34;b&#34;:0.0,&#34;a&#34;:0.48704355955123901},&#34;position&#34;:0.50578802824020386},{&#34;color&#34;:{&#34;r&#34;:0.0,&#34;g&#34;:0.0,&#34;b&#34;:0.0,&#34;a&#34;:0.0},&#34;position&#34;:1.0}],&#34;stopsVar&#34;:[{&#34;color&#34;:{&#34;r&#34;:0.0,&#34;g&#34;:0.0,&#34;b&#34;:0.0,&#34;a&#34;:1.0},&#34;position&#34;:0.0},{&#34;color&#34;:{&#34;r&#34;:0.0,&#34;g&#34;:0.0,&#34;b&#34;:0.0,&#34;a&#34;:0.48704355955123901},&#34;position&#34;:0.50578802824020386},{&#34;color&#34;:{&#34;r&#34;:0.0,&#34;g&#34;:0.0,&#34;b&#34;:0.0,&#34;a&#34;:0.0},&#34;position&#34;:1.0}],&#34;transform&#34;:{&#34;m00&#34;:-19.044261932373047,&#34;m01&#34;:-270.80801391601562,&#34;m02&#34;:225.07098388671875,&#34;m10&#34;:123.19872283935547,&#34;m11&#34;:-42.418655395507812,&#34;m12&#34;:43.412158966064453},&#34;opacity&#34;:0.60000002384185791,&#34;blendMode&#34;:&#34;SOFT_LIGHT&#34;,&#34;visible&#34;:true}" style="mix-blend-mode:soft-light"/>
<path d="M137.143 100.993C131.015 90.7139 114.315 87.723 108.381 88.2192C99.7349 88.9365 94.8748 90.3877 94.4104 90.5352L92.1996 91.4241C91.1078 94.6816 88.7767 97.5127 85.4574 99.1166C84.6611 99.5014 83.835 99.798 83.0049 100.007C83.3445 100.42 86.6301 104.394 90.8291 112.503C94.2236 119.053 97.5861 136.333 90.0019 146.586C88.0901 149.176 85.1863 151.297 81.6808 152.99C78.1752 154.684 73.8721 155.995 69.4296 156.911C71.2032 157.81 72.9843 158.513 74.6965 158.941C79.6436 160.178 83.6586 159.776 87.9052 159.352C92.6511 158.878 97.5565 158.392 104.18 160.036C112.372 162.076 116.376 165.716 118.23 168.179C119.525 164.682 122.336 158.094 127.198 151.156C135.673 139.077 143.78 112.089 137.158 100.998L137.143 100.993Z" fill="url(#paint10_linear_281_181)"/>
<g clip-path="url(#paint11_diamond_281_181_clip_path)" data-figma-skip-parse="true"><g transform="matrix(-0.00952213 0.0615994 -0.135404 -0.0212093 80.1448 83.8022)"><rect x="0" y="0" width="2022.44" height="883.858" fill="url(#paint11_diamond_281_181)" opacity="0.6" shape-rendering="crispEdges"/><rect x="0" y="0" width="2022.44" height="883.858" transform="scale(1 -1)" fill="url(#paint11_diamond_281_181)" opacity="0.6" shape-rendering="crispEdges"/><rect x="0" y="0" width="2022.44" height="883.858" transform="scale(-1 1)" fill="url(#paint11_diamond_281_181)" opacity="0.6" shape-rendering="crispEdges"/><rect x="0" y="0" width="2022.44" height="883.858" transform="scale(-1)" fill="url(#paint11_diamond_281_181)" opacity="0.6" shape-rendering="crispEdges"/></g></g><path d="M137.143 100.993C131.015 90.7139 114.315 87.723 108.381 88.2192C99.7349 88.9365 94.8748 90.3877 94.4104 90.5352L92.1996 91.4241C91.1078 94.6816 88.7767 97.5127 85.4574 99.1166C84.6611 99.5014 83.835 99.798 83.0049 100.007C83.3445 100.42 86.6301 104.394 90.8291 112.503C94.2236 119.053 97.5861 136.333 90.0019 146.586C88.0901 149.176 85.1863 151.297 81.6808 152.99C78.1752 154.684 73.8721 155.995 69.4296 156.911C71.2032 157.81 72.9843 158.513 74.6965 158.941C79.6436 160.178 83.6586 159.776 87.9052 159.352C92.6511 158.878 97.5565 158.392 104.18 160.036C112.372 162.076 116.376 165.716 118.23 168.179C119.525 164.682 122.336 158.094 127.198 151.156C135.673 139.077 143.78 112.089 137.158 100.998L137.143 100.993Z" data-figma-gradient-fill="{&#34;type&#34;:&#34;GRADIENT_DIAMOND&#34;,&#34;stops&#34;:[{&#34;color&#34;:{&#34;r&#34;:0.0,&#34;g&#34;:0.0,&#34;b&#34;:0.0,&#34;a&#34;:1.0},&#34;position&#34;:0.0},{&#34;color&#34;:{&#34;r&#34;:0.0,&#34;g&#34;:0.0,&#34;b&#34;:0.0,&#34;a&#34;:0.48704355955123901},&#34;position&#34;:0.50578802824020386},{&#34;color&#34;:{&#34;r&#34;:0.0,&#34;g&#34;:0.0,&#34;b&#34;:0.0,&#34;a&#34;:0.0},&#34;position&#34;:1.0}],&#34;stopsVar&#34;:[{&#34;color&#34;:{&#34;r&#34;:0.0,&#34;g&#34;:0.0,&#34;b&#34;:0.0,&#34;a&#34;:1.0},&#34;position&#34;:0.0},{&#34;color&#34;:{&#34;r&#34;:0.0,&#34;g&#34;:0.0,&#34;b&#34;:0.0,&#34;a&#34;:0.48704355955123901},&#34;position&#34;:0.50578802824020386},{&#34;color&#34;:{&#34;r&#34;:0.0,&#34;g&#34;:0.0,&#34;b&#34;:0.0,&#34;a&#34;:0.0},&#34;position&#34;:1.0}],&#34;transform&#34;:{&#34;m00&#34;:-19.044261932373047,&#34;m01&#34;:-270.80801391601562,&#34;m02&#34;:225.07098388671875,&#34;m10&#34;:123.19872283935547,&#34;m11&#34;:-42.418655395507812,&#34;m12&#34;:43.412158966064453},&#34;opacity&#34;:0.60000002384185791,&#34;blendMode&#34;:&#34;SOFT_LIGHT&#34;,&#34;visible&#34;:true}" style="mix-blend-mode:soft-light"/>
<defs>
<clipPath id="paint1_diamond_281_181_clip_path"><path d="M58.58 102.492C63.8119 97.3487 66.6067 93.5503 67.5112 92.2545C65.8452 88.2789 66.2558 83.9022 68.317 80.4069C65.977 79.5767 62.3691 78.1287 57.662 75.6995C51.1202 72.324 38.3973 60.1695 38.6227 47.3848C38.7624 39.7811 44.8624 31.1556 52.4903 23.7913C47.7315 23.6044 43.0414 24.589 39.4842 26.3079C34.9032 28.5215 32.0729 31.4016 29.0865 34.4339C25.7412 37.8319 22.2865 41.3469 16.1544 44.31C8.56431 47.9777 3.17391 47.7242 0.184842 47.0026C1.41394 50.5228 3.442 57.4123 4.12002 65.8898C5.29586 80.6505 16.2279 106.679 28.3678 111.028C39.6116 115.054 54.3362 106.67 58.5747 102.507L58.58 102.492Z" style="mix-blend-mode:soft-light"/></clipPath><clipPath id="paint3_diamond_281_181_clip_path"><path d="M88.0342 145.127C95.1223 135.537 91.4022 118.942 88.6566 113.63C84.6487 105.89 81.4296 101.947 81.1204 101.571L79.9873 100.414C75.6214 100.486 71.3784 98.3835 68.8152 94.6364C67.4621 96.4821 64.765 99.8489 60.3027 104.235C58.3577 106.149 55.0092 108.485 50.9556 110.444C44.0687 113.772 35.1428 116.021 27.5751 113.321C21.4564 111.138 15.9904 104.551 11.6755 96.6776C10.347 100.844 9.89348 105.37 10.511 109.314C11.2955 114.369 13.2183 117.926 15.2465 121.701C17.5216 125.907 19.872 130.27 20.9196 137.031C22.221 145.399 20.4087 150.492 18.8612 153.149C22.5747 153.021 29.7357 153.111 38.0019 154.987C52.4114 158.252 80.387 155.487 88.0496 145.132L88.0342 145.127Z" style="mix-blend-mode:soft-light"/></clipPath><clipPath id="paint5_diamond_281_181_clip_path"><path d="M41.0694 47.4329C40.8536 59.3927 53.4773 70.7877 58.7772 73.52C63.8574 76.1406 67.6605 77.5968 69.8319 78.3419C70.9467 77.0855 72.3215 76.0238 73.9243 75.2493C76.9542 73.7853 80.2621 73.6095 83.265 74.4654C83.2945 72.8106 83.5253 67.9825 85.1087 60.463C86.6268 53.257 94.9654 37.8079 107.33 34.7554C113.755 33.1633 122.12 35.7728 130.203 40.1208C128.853 36.8772 126.991 33.8679 124.776 31.5803C121.214 27.9054 117.595 26.1169 113.771 24.2221C109.482 22.1036 105.055 19.9107 100.299 15.0056C94.4007 8.92262 92.929 3.71242 92.6561 0.640073C89.7095 2.90984 83.8316 7.00615 76.0507 10.279C62.4624 15.9991 41.3271 34.5301 41.0848 47.4383L41.0694 47.4329Z" style="mix-blend-mode:soft-light"/></clipPath><clipPath id="paint7_diamond_281_181_clip_path"><path d="M69.9886 91.8648C72.5844 97.2367 79.0363 99.5021 84.3825 96.9187C89.7287 94.3354 91.9631 87.8727 89.3673 82.5007C86.7715 77.1288 80.3196 74.8634 74.9734 77.4468C69.6272 80.0301 67.3928 86.4928 69.9886 91.8648Z" style="mix-blend-mode:soft-light"/></clipPath><clipPath id="paint9_diamond_281_181_clip_path"><path d="M107.914 37.1261C96.3696 39.9747 88.7232 55.1406 87.4884 60.9793C85.693 69.4856 85.6802 74.5801 85.6899 75.0753L85.7265 75.4677C88.1796 76.7432 90.2742 78.7814 91.5696 81.4622C92.6742 83.7481 93.052 86.193 92.8189 88.5614L93.5421 88.2632C93.5421 88.2632 93.5938 88.2382 93.6145 88.2282C93.826 88.1644 98.7957 86.5705 108.167 85.7974C115.49 85.1937 132.678 88.7697 139.229 99.7666C142.068 104.534 142.513 111.445 141.553 118.83C143.004 117.347 144.318 115.763 145.304 114.108C147.9 109.713 148.666 105.755 149.481 101.554C150.389 96.8605 151.324 92.0124 154.791 86.1462C159.086 78.88 163.73 76.1104 166.595 75.046C163.635 72.7727 158.151 68.1554 152.928 61.4383C143.835 49.7472 120.408 34.0499 107.919 37.1365L107.914 37.1261Z" style="mix-blend-mode:soft-light"/></clipPath><clipPath id="paint11_diamond_281_181_clip_path"><path d="M137.143 100.993C131.015 90.7139 114.315 87.723 108.381 88.2192C99.7349 88.9365 94.8748 90.3877 94.4104 90.5352L92.1996 91.4241C91.1078 94.6816 88.7767 97.5127 85.4574 99.1166C84.6611 99.5014 83.835 99.798 83.0049 100.007C83.3445 100.42 86.6301 104.394 90.8291 112.503C94.2236 119.053 97.5861 136.333 90.0019 146.586C88.0901 149.176 85.1863 151.297 81.6808 152.99C78.1752 154.684 73.8721 155.995 69.4296 156.911C71.2032 157.81 72.9843 158.513 74.6965 158.941C79.6436 160.178 83.6586 159.776 87.9052 159.352C92.6511 158.878 97.5565 158.392 104.18 160.036C112.372 162.076 116.376 165.716 118.23 168.179C119.525 164.682 122.336 158.094 127.198 151.156C135.673 139.077 143.78 112.089 137.158 100.998L137.143 100.993Z" style="mix-blend-mode:soft-light"/></clipPath><linearGradient id="paint0_linear_281_181" x1="113.435" y1="156.95" x2="48.7582" y2="23.1027" gradientUnits="userSpaceOnUse">
<stop stop-color="#52B8BB"/>
<stop offset="0.5" stop-color="#6578E1"/>
<stop offset="1" stop-color="#225FAB"/>
</linearGradient>
<linearGradient id="paint1_diamond_281_181" x1="0" y1="0" x2="500" y2="500" gradientUnits="userSpaceOnUse">
<stop/>
<stop offset="0.505788" stop-opacity="0.487044"/>
<stop offset="1" stop-opacity="0"/>
</linearGradient>
<linearGradient id="paint2_linear_281_181" x1="113.435" y1="156.95" x2="48.7582" y2="23.1027" gradientUnits="userSpaceOnUse">
<stop stop-color="#52B8BB"/>
<stop offset="0.5" stop-color="#6578E1"/>
<stop offset="1" stop-color="#225FAB"/>
</linearGradient>
<linearGradient id="paint3_diamond_281_181" x1="0" y1="0" x2="500" y2="500" gradientUnits="userSpaceOnUse">
<stop/>
<stop offset="0.505788" stop-opacity="0.487044"/>
<stop offset="1" stop-opacity="0"/>
</linearGradient>
<linearGradient id="paint4_linear_281_181" x1="113.435" y1="156.95" x2="48.7582" y2="23.1027" gradientUnits="userSpaceOnUse">
<stop stop-color="#52B8BB"/>
<stop offset="0.5" stop-color="#6578E1"/>
<stop offset="1" stop-color="#225FAB"/>
</linearGradient>
<linearGradient id="paint5_diamond_281_181" x1="0" y1="0" x2="500" y2="500" gradientUnits="userSpaceOnUse">
<stop/>
<stop offset="0.505788" stop-opacity="0.487044"/>
<stop offset="1" stop-opacity="0"/>
</linearGradient>
<linearGradient id="paint6_linear_281_181" x1="113.435" y1="156.95" x2="48.7582" y2="23.1027" gradientUnits="userSpaceOnUse">
<stop stop-color="#52B8BB"/>
<stop offset="0.5" stop-color="#6578E1"/>
<stop offset="1" stop-color="#225FAB"/>
</linearGradient>
<linearGradient id="paint7_diamond_281_181" x1="0" y1="0" x2="500" y2="500" gradientUnits="userSpaceOnUse">
<stop/>
<stop offset="0.505788" stop-opacity="0.487044"/>
<stop offset="1" stop-opacity="0"/>
</linearGradient>
<linearGradient id="paint8_linear_281_181" x1="113.435" y1="156.95" x2="48.7582" y2="23.1027" gradientUnits="userSpaceOnUse">
<stop stop-color="#52B8BB"/>
<stop offset="0.5" stop-color="#6578E1"/>
<stop offset="1" stop-color="#225FAB"/>
</linearGradient>
<linearGradient id="paint9_diamond_281_181" x1="0" y1="0" x2="500" y2="500" gradientUnits="userSpaceOnUse">
<stop/>
<stop offset="0.505788" stop-opacity="0.487044"/>
<stop offset="1" stop-opacity="0"/>
</linearGradient>
<linearGradient id="paint10_linear_281_181" x1="113.435" y1="156.95" x2="48.7582" y2="23.1027" gradientUnits="userSpaceOnUse">
<stop stop-color="#52B8BB"/>
<stop offset="0.5" stop-color="#6578E1"/>
<stop offset="1" stop-color="#225FAB"/>
</linearGradient>
<linearGradient id="paint11_diamond_281_181" x1="0" y1="0" x2="500" y2="500" gradientUnits="userSpaceOnUse">
<stop/>
<stop offset="0.505788" stop-opacity="0.487044"/>
<stop offset="1" stop-opacity="0"/>
</linearGradient>
</defs>
</svg>
